<?xml version="1.0" encoding="UTF-8"?>
<svg id="Layer_1" data-name="Layer 1" xmlns="http://www.w3.org/2000/svg" viewBox="0 0 540 540">
  <defs>
    <style>
      .cls-1 {
        fill: #222;
      }

      .cls-2 {
        fill: #f15c22;
      }

      .cls-3 {
        fill: #840055;
      }

      .cls-4 {
        fill: #27aae3;
      }

      .cls-5 {
        fill: #8bc242;
      }

      .cls-6 {
        fill: #f11c28;
      }
    </style>
  </defs>
  <g>
    <path class="cls-5" d="m166.31,232.41c-.22,1.2-.42,1.8-.42,2.41.08,10.82-.11,21.65.38,32.45,3.38,29.4,42.97,29.19,48.98,3.01.59-2.41.45-5.01.48-7.53.1-9.66-.04-19.33.26-28.99.29-9.36,5.09-14.68,14.19-15.79.85,15.59.06,31.44.56,47.11.59,16.74-10.97,32.98-27.01,37.59-16.88,4.5-32.03,1.41-43.75-12.53-5.55-6.6-8.79-14.28-8.82-23.02.11-16.33-.23-32.74.31-49.03,20.99-.4,45.85-4.66,48.19,23.75.49,7.53.23,15.12.15,22.68-.05,5.17-4.03,9.06-8.95,9.04-4.89-.02-8.84-3.95-8.89-9.14-.08-7.35.05-14.71.04-22.06-.11-10.22-7.46-10.22-15.69-9.96Z"/>
    <path class="cls-5" d="m216.68,208.71c.39,6.1-5.16,12.02-11.57,11.86-6.39-.16-11.92-5.6-11.77-11.84.15-6.41,5.71-11.9,11.96-11.7,5.07.17,12.15,4.98,11.38,11.68Z"/>
  </g>
  <path class="cls-4" d="m118.5,255.14c17.79,4.03,22.29,14.59,22.29,24.55,0,15.42-11.62,26.92-35.1,26.92-24.67,0-35.69-12.33-35.69-21.58,0-4.74,3.44-8.06,8.18-8.06,10.55,0,7.83,15.42,27.51,15.42,10.08,0,15.65-5.57,15.65-11.27,0-3.44-1.66-7.23-8.3-8.89l-21.94-5.57c-17.67-4.51-20.87-14.23-20.87-23.36,0-18.97,17.55-26.09,34.03-26.09,15.18,0,33.09,8.54,33.09,19.92,0,4.86-4.15,7.71-8.89,7.71-9.01,0-7.35-12.69-25.5-12.69-9.01,0-13.99,4.15-13.99,10.08s7.12,7.83,13.28,9.25l16.25,3.68Z"/>
  <path class="cls-2" d="m247.29,227.4c0-5.81,3.79-9.72,9.72-9.72s9.72,3.91,9.72,9.72v60.84h32.49c5.57,0,10.08,2.85,10.08,8.18s-4.51,8.18-10.08,8.18h-40.56c-6.88,0-11.38-2.73-11.38-11.38v-65.82Z"/>
  <path class="cls-6" d="m364.46,255.14c17.79,4.03,22.29,14.59,22.29,24.55,0,15.42-11.62,26.92-35.1,26.92-24.67,0-35.69-12.33-35.69-21.58,0-4.74,3.44-8.06,8.18-8.06,10.55,0,7.83,15.42,27.51,15.42,10.08,0,15.65-5.57,15.65-11.27,0-3.44-1.66-7.23-8.3-8.89l-21.94-5.57c-17.67-4.51-20.87-14.23-20.87-23.36,0-18.97,17.55-26.09,34.03-26.09,15.18,0,33.09,8.54,33.09,19.92,0,4.86-4.15,7.71-8.89,7.71-9.01,0-7.35-12.69-25.5-12.69-9.01,0-13.99,4.15-13.99,10.08s7.12,7.83,13.28,9.25l16.25,3.68Z"/>
  <path class="cls-3" d="m420.07,223.6c1.66-4.39,4.74-5.93,9.49-5.93h4.63c4.39,0,8.3,1.07,10.44,7.12l23.48,65.34c.71,1.9,1.9,5.34,1.9,7.47,0,4.74-4.15,8.54-9.13,8.54-4.27,0-7.35-1.54-8.78-5.34l-4.98-14.23h-31.31l-5.1,14.23c-1.3,3.79-4.03,5.34-8.66,5.34-5.34,0-9.01-3.32-9.01-8.54,0-2.13,1.19-5.57,1.9-7.47l25.14-66.53Zm11.74,15.18h-.24l-11.5,34.27h22.77l-11.03-34.27Z"/>
  <g>
    <path class="cls-1" d="m120.56,326.3h1.89l4.83,12.57h-1.83l-.93-2.52h-6.03l-.93,2.52h-1.83l4.83-12.57Zm3.47,8.65l-2.54-6.74-2.52,6.74h5.06Z"/>
    <path class="cls-1" d="m141.17,335.21c0,1.14,1.26,2.17,3.05,2.17,1.6,0,3.05-.91,3.05-2.17-.02-3.43-7.54-1.12-7.54-5.61-.02-1.87,2.03-3.31,4.49-3.31s4.49,1.5,4.49,3.39h-1.71c0-1.08-1.26-1.93-2.78-1.93s-2.78.79-2.78,1.91c0,3.21,7.54.89,7.54,5.63,0,2.13-2.38,3.57-4.75,3.57-2.62,0-4.75-1.6-4.75-3.66h1.71Z"/>
    <path class="cls-1" d="m162.88,338.87v-12.57h1.71v5.55h1.58l4.87-5.55h2.01l-5.38,6.24,5.5,6.34h-2.03l-4.94-5.57h-1.62v5.57h-1.71Z"/>
    <path class="cls-1" d="m205.19,326.3h9.45v1.46h-7.74v4.12h6.93v1.4h-6.93v5.59h-1.71v-12.57Z"/>
    <path class="cls-1" d="m233.48,326.3c3.21,0,6.09,2.64,6.09,6.28s-2.88,6.3-6.09,6.3-6.09-2.66-6.09-6.3,2.88-6.28,6.09-6.28Zm-4.39,6.28c0,2.68,1.99,4.81,4.39,4.81s4.39-2.13,4.39-4.81-1.91-4.81-4.39-4.81-4.39,2.21-4.39,4.81Z"/>
    <path class="cls-1" d="m255.09,326.3v7.64c0,2.05,1.69,3.45,3.64,3.45s3.62-1.42,3.64-3.45v-7.64h1.71v7.64c0,2.74-2.17,4.94-5.34,4.94s-5.32-2.21-5.32-4.94v-7.64h1.69Z"/>
    <path class="cls-1" d="m278.48,326.3h1.95l6.91,10.03.02-10.03h1.65v12.57h-1.93l-6.93-10.05v10.05h-1.67v-12.57Z"/>
    <path class="cls-1" d="m303.53,326.3h4.92c3.05,0,5.48,2.82,5.48,6.28s-2.44,6.3-5.48,6.3h-4.92v-12.57Zm1.71,11.09h2.97c2.25,0,4.04-2.19,4.04-4.81s-1.79-4.81-4.04-4.81h-2.97v9.63Z"/>
    <path class="cls-1" d="m330.82,326.3h1.89l4.83,12.57h-1.83l-.93-2.52h-6.03l-.93,2.52h-1.83l4.83-12.57Zm3.47,8.65l-2.54-6.74-2.52,6.74h5.06Z"/>
    <path class="cls-1" d="m347.92,326.3h10.46v1.46h-4.37v11.11h-1.71v-11.11h-4.39v-1.46Z"/>
    <path class="cls-1" d="m372,338.87v-12.57h1.71v12.57h-1.71Z"/>
    <path class="cls-1" d="m393.73,326.3c3.21,0,6.09,2.64,6.09,6.28s-2.88,6.3-6.09,6.3-6.09-2.66-6.09-6.3,2.88-6.28,6.09-6.28Zm-4.39,6.28c0,2.68,1.99,4.81,4.39,4.81s4.39-2.13,4.39-4.81-1.91-4.81-4.39-4.81-4.39,2.21-4.39,4.81Z"/>
    <path class="cls-1" d="m413.75,326.3h1.95l6.91,10.03.02-10.03h1.65v12.57h-1.93l-6.93-10.05v10.05h-1.67v-12.57Z"/>
  </g>
</svg>